:FULLY-SPECIFIED
:FORCE-ALL-JOINTS-BE-3DOF
:DEGREES
1019
root 1.1463 15.1598 32.4504 4.85842 -3.49221 3.57267
lfemur 8.46143 0.522488 5.73299
ltibia 1.43125e-014 -0 0
lfoot -30.1418 -11.0245 5.89523e-005
ltoes -34.4094 0 0
rfemur -31.6345 -15.921 -6.01038
rtibia 50.2307 -0 0
rfoot -22.369 4.78436 7.41568e-005
rtoes -42.4862 0 0
lowerback -1.43534 -0.149879 0.286594
upperback -0.543297 -0.188479 -5.93308
thorax 0.22546 -0.101731 -6.31652
lowerneck -7.18969 0.934463 6.26047
upperneck 1.67843 0.555725 3.49883
head 1.75789 0.413996 0.0603026
lclavicle 9.93923e-017 -7.95139e-015 0
lhumerus -58.646 -46.4189 115.304
lradius 55.6893 -0 0
lwrist 25.265 0 0
lhand 37.2277 24.9376 0.000323557
lfingers 7.12502 -0 0
lthumb 60.0602 38.656 0.000588522
rclavicle 9.93923e-017 -7.95139e-015 0
rhumerus 2.85872 -23.8961 0.157868
rradius 27.6633 -0 0
rwrist -10.2687 0 0
rhand -30.7642 -42.8634 4.46635e-005
rfingers 7.12502 -0 0
rthumb -4.05548 -72.8047 4.0478e-005
1020
root 1.14684 15.1598 32.4503 4.85448 -3.46641 3.5588
lfemur 8.45892 0.498309 5.74751
ltibia 1.43125e-014 -0 0
lfoot -30.1418 -11.0156 3.54297e-005
ltoes -34.4173 0 0
rfemur -31.609 -15.9271 -6.00568
rtibia 50.2283 -0 0
rfoot -22.3506 4.8002 4.05308e-005
rtoes -42.4551 0 0
lowerback -1.44096 -0.144917 0.272468
upperback -0.539816 -0.181241 -5.93937
thorax 0.233029 -0.0978906 -6.31501
lowerneck -7.19633 0.925393 6.27442
upperneck 1.68419 0.541421 3.50342
head 1.76085 0.407357 0.058927
lclavicle 9.93923e-017 -7.95139e-015 0
lhumerus -58.6544 -46.4424 115.304
lradius 55.7087 -0 0
lwrist 25.2622 0 0
lhand 37.2366 24.952 0.000210969
lfingers 7.12502 -0 0
lthumb 60.0677 38.662 0.000389891
rclavicle 9.93923e-017 -7.95139e-015 0
rhumerus 2.82988 -23.8849 0.181374
rradius 27.6557 -0 0
rwrist -10.2432 0 0
rhand -30.7491 -42.8342 8.78908e-005
rfingers 7.12502 -0 0
rthumb -4.04091 -72.7757 8.25384e-005
1021
root 1.14738 15.1597 32.4503 4.85063 -3.44232 3.54574
lfemur 8.45733 0.475686 5.76066
ltibia 1.43125e-014 -0 0
lfoot -30.1427 -11.0075 1.69031e-005
ltoes -34.4246 0 0
rfemur -31.5837 -15.9316 -6.00215
rtibia 50.2252 -0 0
rfoot -22.3327 4.81532 1.42461e-005
rtoes -42.4237 0 0
lowerback -1.44699 -0.140078 0.258434
upperback -0.536368 -0.174157 -5.94518
thorax 0.240775 -0.0941263 -6.31304
lowerneck -7.20231 0.916605 6.28769
upperneck 1.68892 0.527657 3.50802
head 1.76336 0.40094 0.0576912
lclavicle 9.93923e-017 -7.95139e-015 0
lhumerus -58.6621 -46.4654 115.304
lradius 55.7267 -0 0
lwrist 25.2609 0 0
lhand 37.2446 24.9663 0.000118484
lfingers 7.12502 -0 0
lthumb 60.0745 38.6688 0.000226116
rclavicle 9.93923e-017 -7.95139e-015 0
rhumerus 2.80143 -23.8733 0.203363
rradius 27.6483 -0 0
rwrist -10.2183 0 0
rhand -30.7346 -42.8043 0.000108453
rfingers 7.12502 -0 0
rthumb -4.02687 -72.7462 0.000102813
1022
root 1.14793 15.1597 32.4502 4.84685 -3.42002 3.53355
lfemur 8.45672 0.454691 5.77232
ltibia 1.43125e-014 -0 0
lfoot -30.1443 -11.0002 4.24945e-006
ltoes -34.4311 0 0
rfemur -31.5587 -15.9346 -5.99991
rtibia 50.2212 -0 0
rfoot -22.3152 4.82955 -2.69223e-006
rtoes -42.3922 0 0
lowerback -1.45342 -0.135357 0.244521
upperback -0.532938 -0.167221 -5.95043
thorax 0.248719 -0.0904352 -6.31054
lowerneck -7.20759 0.908127 6.30021
upperneck 1.69261 0.51448 3.51263
head 1.7654 0.394764 0.0566029
lclavicle 9.93923e-017 -7.95139e-015 0
lhumerus -58.669 -46.4878 115.305
lradius 55.7431 -0 0
lwrist 25.2613 0 0
lhand 37.2515 24.9807 4.98979e-005
lfingers 7.12502 -0 0
lthumb 60.0803 38.6767 0.00010278
rclavicle 9.93923e-017 -7.95139e-015 0
rhumerus 2.77335 -23.861 0.223621
rradius 27.6409 -0 0
rwrist -10.1941 0 0
rhand -30.7206 -42.7737 0.000102956
rfingers 7.12502 -0 0
rthumb -4.01338 -72.7158 9.80295e-005
1023
root 1.14847 15.1597 32.4501 4.84309 -3.39962 3.52228
lfemur 8.45714 0.4354 5.7824
ltibia 1.43125e-014 -0 0
lfoot -30.1469 -10.9936 -1.66688e-006
ltoes -34.4368 0 0
rfemur -31.534 -15.9359 -5.99906
rtibia 50.2163 -0 0
rfoot -22.2983 4.84273 -8.17493e-006
rtoes -42.3606 0 0
lowerback -1.46027 -0.130753 0.230757
upperback -0.529511 -0.16043 -5.95505
thorax 0.256882 -0.0868143 -6.30747
lowerneck -7.21216 0.899985 6.31191
upperneck 1.69522 0.501935 3.51722
head 1.76696 0.388852 0.0556695
lclavicle 9.93923e-017 -7.95139e-015 0
lhumerus -58.675 -46.5096 115.306
lradius 55.7578 -0 0
lwrist 25.2636 0 0
lhand 37.2571 24.9952 9.08435e-006
lfingers 7.12502 -0 0
lthumb 60.0851 38.6859 2.55076e-005
rclavicle 9.93923e-017 -7.95139e-015 0
rhumerus 2.74564 -23.8479 0.241934
rradius 27.6336 -0 0
rwrist -10.1705 0 0
rhand -30.7073 -42.7421 6.7962e-005
rfingers 7.12502 -0 0
rthumb -4.00047 -72.6845 6.48739e-005
